<?xml version="1.0" encoding="UTF-8" standalone="no"?>
<!-- Created with Inkscape (http://www.inkscape.org/) -->

<svg
   width="55.29792mm"
   height="25.400063mm"
   viewBox="0 0 55.29792 25.400063"
   version="1.1"
   id="svg1"
   xml:space="preserve"
   inkscape:export-filename="mg-8bitp.png"
   inkscape:export-xdpi="96"
   inkscape:export-ydpi="96"
   xmlns:inkscape="http://www.inkscape.org/namespaces/inkscape"
   xmlns:sodipodi="http://sodipodi.sourceforge.net/DTD/sodipodi-0.dtd"
   xmlns="http://www.w3.org/2000/svg"
   xmlns:svg="http://www.w3.org/2000/svg"><sodipodi:namedview
     id="namedview1"
     pagecolor="#ffffff"
     bordercolor="#000000"
     borderopacity="0.25"
     inkscape:showpageshadow="2"
     inkscape:pageopacity="0.0"
     inkscape:pagecheckerboard="0"
     inkscape:deskcolor="#d1d1d1"
     inkscape:document-units="mm"><inkscape:page
       x="0"
       y="0"
       width="55.29792"
       height="25.400063"
       id="page2"
       margin="0"
       bleed="0" /></sodipodi:namedview><defs
     id="defs1" /><g
     inkscape:label="Layer 1"
     inkscape:groupmode="layer"
     id="layer1"
     transform="translate(-70.960581,-87.932457)"><path
       style="fill:#000000"
       d="M 70.960587,100.63252 V 87.932517 h 2.513542 2.513541 v 2.51354 2.51354 h 2.655414 2.655415 l -0.07573,2.57969 -0.07573,2.57969 -2.579687,0.0757 -2.579688,0.0757 v 7.531053 7.53104 h -2.513541 -2.513542 z m 20.372916,5.15938 V 98.251267 H 88.819961 86.30642 v 5.027083 5.02709 h -2.513542 -2.513541 v -5.02709 -5.027083 h 2.513541 2.513542 v -2.64583 -2.64584 h 2.513541 2.513542 v -2.51354 -2.51354 h 2.513542 2.513541 v 12.700003 12.7 h -2.513541 -2.513542 z m 14.552077,5.02708 v -2.51354 h -2.51759 -2.5176 l 0.0702,-7.60677 0.0702,-7.606773 2.4474,-0.0761 2.44739,-0.0761 v -2.50363 -2.50361 h 10.18646 10.18646 v 2.51354 2.51354 h -10.18646 -10.18646 v 7.672923 7.67292 h 7.67292 7.67292 v -2.51354 -2.51355 h -5.15938 -5.15937 v -2.51354 -2.513543 h 7.67291 7.67292 v 7.540633 7.54062 h -10.18646 -10.18646 z"
       id="path1" /></g></svg>
