<?xml version="1.0" encoding="UTF-8" standalone="no"?>
<!-- Created with Inkscape (http://www.inkscape.org/) -->

<svg
   version="1.1"
   id="svg1"
   width="512"
   height="512"
   viewBox="0 0 512 512"
   sodipodi:docname="Gemini_Generated_Image_7pmgew7pmgew7pmg (1).png"
   xmlns:inkscape="http://www.inkscape.org/namespaces/inkscape"
   xmlns:sodipodi="http://sodipodi.sourceforge.net/DTD/sodipodi-0.dtd"
   xmlns="http://www.w3.org/2000/svg"
   xmlns:svg="http://www.w3.org/2000/svg">
  <defs
     id="defs1" />
  <sodipodi:namedview
     id="namedview1"
     pagecolor="#ffffff"
     bordercolor="#000000"
     borderopacity="0.25"
     inkscape:showpageshadow="2"
     inkscape:pageopacity="0.0"
     inkscape:pagecheckerboard="0"
     inkscape:deskcolor="#d1d1d1"
     showgrid="false">
    <inkscape:page
       x="0"
       y="0"
       width="512"
       height="512"
       id="page2"
       margin="0"
       bleed="0" />
  </sodipodi:namedview>
  <g
     inkscape:groupmode="layer"
     inkscape:label="Image"
     id="g1"
     transform="translate(-15.123471,-30.389164)">
    <path
       style="fill:#000000;stroke-width:0.931327"
       d="m 37.08284,527.5156 c -8.561617,-1.53958 -15.63366,-7.23737 -19.662284,-15.84145 l -1.965585,-4.19797 -0.269628,-129.92015 c -0.185399,-89.33579 0.04247,-131.81118 0.729564,-135.97378 2.839301,-17.20199 18.052578,-33.17924 35.396164,-37.17365 11.72731,-2.70093 26.400547,0.0519 36.693529,6.88397 6.454337,4.28415 9.845541,8.11043 35.09978,39.60296 18.08127,22.5477 40.7886,50.73189 50.8822,63.1547 11.73696,14.44537 16.64784,34.27908 12.8843,52.03615 -2.31786,10.93608 -1.00061,8.1432 -28.47046,60.36433 -25.58999,48.64743 -38.73025,73.12699 -41.19718,76.74793 -7.4501,10.93525 -19.459326,19.35117 -32.830052,23.00692 -6.408938,1.75231 -39.70208,2.67459 -47.290348,1.31004 z m 387.12054,-0.0357 c -8.36638,-1.13246 -12.99973,-2.53237 -21.31628,-6.4405 -12.8854,-6.05514 -17.59432,-10.41634 -36.65035,-33.94403 -9.59045,-11.84092 -24.10783,-29.70134 -32.26084,-39.68982 -8.15303,-9.98849 -18.17603,-22.35186 -22.27334,-27.47416 -4.0973,-5.1223 -18.38125,-22.72438 -31.74209,-39.11574 -13.36084,-16.39136 -31.41947,-38.60352 -40.13027,-49.36035 -8.71082,-10.75683 -22.33042,-27.52072 -30.26578,-37.25309 -7.93537,-9.73237 -20.66801,-25.44851 -28.29475,-34.92477 -7.62674,-9.47625 -15.15594,-18.72278 -16.73157,-20.54784 -1.57562,-1.82504 -11.45626,-13.91632 -21.95697,-26.86948 C 132.08042,198.90699 117.41202,180.84409 109.98468,171.72038 94.846229,153.12434 91.281652,147.71902 88.073752,138.49472 84.362357,127.82259 83.78552,120.88998 84.089273,90.607451 l 0.283915,-28.305704 2.542886,-4.325646 c 3.015741,-5.130022 7.083564,-8.752927 12.82401,-11.421387 3.989476,-1.854522 5.690936,-1.948185 35.390436,-1.948185 34.76312,0 37.32265,0.333257 49.82601,6.487464 10.18534,5.013271 16.86245,11.18121 30.46771,28.144349 25.63908,31.967028 66.92235,83.264388 80.86962,100.486188 7.91552,9.77393 25.28837,31.30493 38.60635,47.84668 22.15255,27.51482 51.43171,63.80609 80.09415,99.27598 20.16249,24.95118 27.43676,30.51122 50.75733,38.79609 16.26969,5.77996 27.23334,12.85985 37.98722,24.53061 10.96663,11.90163 18.41259,26.6492 21.78165,43.14099 1.60069,7.83553 1.75613,12.20164 1.5088,42.37972 l -0.27573,33.64424 -2.30891,4.52059 c -2.75622,5.39638 -6.16142,8.4458 -13.05799,11.69367 l -5.1223,2.41228 -38.18442,0.1425 c -21.00143,0.0784 -40.74591,-0.20422 -43.87663,-0.62798 z m 49.51055,-201.19272 c -3.04811,-1.08093 -7.77973,-3.45063 -10.51471,-5.266 -4.92612,-3.26979 -8.2598,-7.25932 -70.94304,-84.90018 -17.41541,-21.57111 -21.24803,-30.55908 -20.30757,-47.62376 0.71909,-13.04802 -1.19772,-8.78568 33.92509,-75.43818 25.2844,-47.982172 25.27526,-47.966391 31.13051,-53.754716 6.53824,-6.463517 12.10364,-9.834751 20.8312,-12.61847 5.94701,-1.89684 8.35878,-2.079375 27.47415,-2.079375 14.11106,0 22.20508,0.380489 24.78286,1.165008 4.79417,1.45906 11.90198,7.632853 14.60466,12.685492 l 2.05655,3.844718 0.24701,116.170373 c 0.24458,115.02635 0.22819,116.22623 -1.66442,121.84433 -3.6943,10.96639 -10.43628,18.57491 -21.16747,23.88815 -6.07685,3.00878 -7.66062,3.37845 -15.83256,3.69556 -7.48385,0.2904 -10.0546,0.007 -14.62226,-1.61298 z"
       id="path1" />
  </g>
</svg>
