<svg xmlns="http://www.w3.org/2000/svg" version="1.1" xmlns:xlink="http://www.w3.org/1999/xlink" width="512" height="512"><svg version="1.2" xmlns="http://www.w3.org/2000/svg" viewBox="0 0 512 512" width="512" height="512">
	<style>
		.s0 { fill: #000000 } 
		.s1 { fill: #ffffff } 
	</style>
	<path id="SvgjsPath1003" fill-rule="evenodd" class="s0" d="m256 512c-141.57 0-256-114.43-256-256 0-141.57 114.43-256 256-256 141.57 0 256 114.43 256 256 0 141.57-114.43 256-256 256z"></path>
	<path id="SvgjsPath1002" class="s1" d="m94.19 423.03c-5.92-1.07-10.81-5.01-13.6-10.96l-1.36-2.9-0.19-89.87c-0.13-61.79 0.03-91.17 0.51-94.05 1.96-11.9 12.48-22.95 24.48-25.72 8.11-1.86 18.26 0.04 25.38 4.77 4.47 2.96 6.81 5.61 24.28 27.39 12.51 15.6 28.21 35.09 35.2 43.68 8.11 10 11.51 23.71 8.91 36-1.61 7.56-0.69 5.63-19.7 41.75-17.7 33.65-26.79 50.58-28.49 53.09-5.15 7.56-13.46 13.38-22.71 15.91-4.43 1.21-27.46 1.85-32.71 0.91zm267.77-0.03c-5.79-0.78-8.99-1.75-14.75-4.45-8.91-4.19-12.16-7.21-25.35-23.48-6.63-8.19-16.67-20.55-22.31-27.45-5.64-6.91-12.57-15.47-15.41-19.01-2.83-3.54-12.71-15.72-21.95-27.06-9.24-11.33-21.74-26.7-27.76-34.14-6.03-7.44-15.45-19.03-20.94-25.77-5.48-6.73-14.29-17.6-19.57-24.15-5.27-6.56-10.48-12.95-11.57-14.22-1.09-1.26-7.92-9.62-15.19-18.58-7.26-8.96-17.41-21.45-22.54-27.77-10.48-12.86-12.94-16.6-15.16-22.98-2.57-7.38-2.97-12.17-2.76-33.12l0.2-19.58 1.76-2.99c2.08-3.55 4.9-6.06 8.87-7.9 2.76-1.29 3.94-1.35 24.48-1.35 24.04 0 25.81 0.23 34.46 4.49 7.05 3.47 11.67 7.73 21.08 19.46 17.73 22.12 46.29 57.6 55.93 69.51 5.48 6.76 17.5 21.65 26.71 33.1 15.32 19.03 35.57 44.13 55.4 68.67 13.95 17.25 18.98 21.1 35.11 26.83 11.25 4 18.84 8.9 26.27 16.97 7.59 8.23 12.74 18.43 15.07 29.84 1.11 5.42 1.21 8.44 1.04 29.31l-0.19 23.27-1.59 3.13c-1.91 3.73-4.27 5.84-9.04 8.09l-3.54 1.67-26.41 0.1c-14.53 0.05-28.19-0.14-30.35-0.44zm34.25-139.16c-2.11-0.75-5.39-2.39-7.28-3.64-3.4-2.27-5.71-5.03-49.07-58.73-12.04-14.92-14.7-21.14-14.05-32.94 0.5-9.03-0.82-6.08 23.47-52.18 17.49-33.19 17.48-33.18 21.53-37.18 4.53-4.47 8.38-6.81 14.41-8.73 4.12-1.31 5.78-1.44 19.01-1.44 9.76 0 15.36 0.26 17.14 0.81 3.31 1.01 8.23 5.28 10.1 8.77l1.42 2.66 0.17 80.35c0.17 79.57 0.16 80.4-1.15 84.28-2.55 7.59-7.22 12.85-14.64 16.53-4.2 2.08-5.3 2.33-10.95 2.55-5.18 0.2-6.95 0.01-10.11-1.11z"></path>
</svg><style>@media (prefers-color-scheme: light) { :root { filter: none; } }
@media (prefers-color-scheme: dark) { :root { filter: none; } }
</style></svg>